<svg id="Layer_1" data-name="Layer 1" xmlns="http://www.w3.org/2000/svg" viewBox="0 0 173.88 77.45" height="120">
  <g style="opacity: 0.42;">
    <path
      d="M37.35,39.56a.64.64,0,0,1-.57-.35.63.63,0,0,1,.3-.84,35.06,35.06,0,0,0,5.08-2.87c.3-.27.89-.89,1.62-1.64,2.5-2.6,4.65-4.79,5.68-5.27,1.45-.67,14-1.58,16.54-1.76a.63.63,0,0,1,.09,1.26C60.37,28.48,51,29.28,50,29.73s-3.66,3.28-5.31,5c-.75.78-1.37,1.42-1.67,1.7a36.5,36.5,0,0,1-5.39,3.07A.66.66,0,0,1,37.35,39.56Z"
      transform="translate(-13.63 -11.65)" style="fill: rgb(54, 153, 255);"/>
    <path
      d="M58.4,42.93a.63.63,0,0,1-.63-.57c-.18-1.9-.55-6.43.09-7.46a9.68,9.68,0,0,1,3.39-3.13c.57-.27,2.67-1.08,5.11-2,2.6-1,5.55-2.12,6.37-2.51a48.7,48.7,0,0,0,7.85-5.66c.39-.55,1.51-5.23,2.36-9.44a.62.62,0,0,1,.59-.5.66.66,0,0,1,.63.47c.44,1.65,2.62,10,2.45,11.25-.2,1.48-3.23,6-3.74,6.59s-7.82,4.34-12.13,6.52a34.17,34.17,0,0,0-2.84,2.07,4.77,4.77,0,0,0,.15,1.74.63.63,0,1,1-1.22.28c-.19-.8-.42-2.24.14-2.86A32.12,32.12,0,0,1,70.1,35.4c4.32-2.19,11.27-5.79,11.85-6.29s3.28-4.89,3.42-5.9A62.37,62.37,0,0,0,83.62,15c-.6,2.74-1.5,6.57-2,7.3-.79,1.11-6.77,5.3-8.33,6.06-.87.41-3.72,1.5-6.47,2.55-2.21.85-4.5,1.72-5,2a8.45,8.45,0,0,0-2.87,2.66c-.29.54-.18,3.89.09,6.68a.63.63,0,0,1-.56.69Z"
      transform="translate(-13.63 -11.65)" style="fill: rgb(54, 153, 255);"/>
    <path
      d="M51.06,83.51a.62.62,0,0,1-.53-.29c-.44-.72-4.33-7-4.33-9.32s7-12.22,8.85-13S74,66.49,76,67.8a11.67,11.67,0,0,0,5.74,2c1.11-.13,8.4-5.27,9-6a3.24,3.24,0,0,0-.08-2c-.22-.42-2.88-3.51-5-6-4.7-5.46-5.74-6.74-5.87-7.2a14.93,14.93,0,0,1,.35-4.07A23.29,23.29,0,0,0,80.39,42a76.79,76.79,0,0,0-5.31-5.67.63.63,0,0,1,.89-.89c5.51,5.52,5.62,6.15,5.66,6.35a13.14,13.14,0,0,1-.29,2.81A22.62,22.62,0,0,0,81,48.16c.24.47,3.34,4.08,5.61,6.71,4,4.59,5.11,6,5.26,6.41a4.22,4.22,0,0,1-.07,3.14c-.39.63-8.42,6.5-10,6.6a12.86,12.86,0,0,1-6.52-2.17c-2.12-1.41-18.18-7.13-19.74-6.78-1.33.56-8.06,9.95-8.06,11.83,0,1.46,2.48,6,4.14,8.66a.61.61,0,0,1-.2.86A.63.63,0,0,1,51.06,83.51Z"
      transform="translate(-13.63 -11.65)" style="fill: rgb(54, 153, 255);"/>
    <path
      d="M76.3,45.3a.62.62,0,0,1-.45-.2,5.58,5.58,0,0,0-2-1.51c-.26,0-.78.62-1,1.16a.63.63,0,1,1-1.12-.56c.16-.31,1-1.85,2.17-1.85s2.53,1.45,3,1.89a.63.63,0,0,1,0,.89A.62.62,0,0,1,76.3,45.3Z"
      transform="translate(-13.63 -11.65)" style="fill: rgb(54, 153, 255);"/>
    <path d="M19.94,74.73a.63.63,0,0,1-.63-.63V49.82a.63.63,0,1,1,1.25,0V74.1A.63.63,0,0,1,19.94,74.73Z"
          transform="translate(-13.63 -11.65)" style="fill: rgb(54, 153, 255);"/>
    <path d="M29.81,74.73a.63.63,0,0,1-.63-.63V49.82a.63.63,0,1,1,1.25,0V74.1A.63.63,0,0,1,29.81,74.73Z"
          transform="translate(-13.63 -11.65)" style="fill: rgb(54, 153, 255);"/>
    <path
      d="M35.49,50.45a.66.66,0,0,1-.52-.27L24.87,35.76,14.77,50.18a.63.63,0,0,1-1-.72L24.36,34.31a.64.64,0,0,1,1,0L36,49.46a.63.63,0,0,1-.51,1Z"
      transform="translate(-13.63 -11.65)" style="fill: rgb(54, 153, 255);"/>
    <path d="M19.94,81.75a.63.63,0,0,1-.63-.63V78.65a.63.63,0,0,1,1.25,0v2.47A.63.63,0,0,1,19.94,81.75Z"
          transform="translate(-13.63 -11.65)" style="fill: rgb(54, 153, 255);"/>
    <path d="M29.81,84.39a.63.63,0,0,1-.63-.63V78.65a.63.63,0,0,1,1.25,0v5.11A.63.63,0,0,1,29.81,84.39Z"
          transform="translate(-13.63 -11.65)" style="fill: rgb(54, 153, 255);"/>
    <path d="M24.87,88a.63.63,0,0,1-.63-.62V54.49a.63.63,0,0,1,1.26,0V87.4A.63.63,0,0,1,24.87,88Z"
          transform="translate(-13.63 -11.65)" style="fill: rgb(54, 153, 255);"/>
    <path
      d="M53.37,58.46a.65.65,0,0,1-.41-.15c-1.49-1.28-4-3.55-4.29-4.33-.31-1,.59-5.47.94-6.26s2.93-2.78,4-3.56a.63.63,0,1,1,.74,1,20.05,20.05,0,0,0-3.59,3,22.87,22.87,0,0,0-.89,5.4,32.75,32.75,0,0,0,3.91,3.75.63.63,0,0,1,.07.88A.61.61,0,0,1,53.37,58.46Z"
      transform="translate(-13.63 -11.65)" style="fill: rgb(54, 153, 255);"/>
  </g>
  <g style="opacity: 0.64;">
    <g style="opacity: 0.51;">
      <path d="M130.34,45.47a.63.63,0,0,1-.36-1.15l2.5-1.7a.63.63,0,1,1,.71,1l-2.5,1.71A.66.66,0,0,1,130.34,45.47Z"
            transform="translate(-13.63 -11.65)" style="fill: rgb(137, 80, 252);"/>
    </g>
    <g style="opacity: 0.51;">
      <path
        d="M154,83.82a.61.61,0,0,1-.3-.08.63.63,0,0,1-.26-.85,75,75,0,0,0,4.15-8.59c-.85-1.45-9.73-9.88-11.11-10.2a13.59,13.59,0,0,0-2,1.3c-1.95,1.37-4.62,3.26-7.33,3.62-3.35.45-15.31,1.36-17.34.1-1.35-.84-6.61-5.11-6.61-7.34,0-1,1.9-3.56,5.94-8.69,2-2.6,4.59-5.84,4.74-6.5a28.13,28.13,0,0,0-.32-3.24c0-.41-.1-.77-.14-1.07-.12-1.12,3.08-5,5.79-8.07a.62.62,0,0,1,.88-.05.63.63,0,0,1,.06.89c-2.55,2.88-5.37,6.43-5.48,7.15,0,.23.08.59.13,1a27.85,27.85,0,0,1,.33,3.47c0,.74-1.13,2.29-5,7.21-2.22,2.83-5.58,7.1-5.68,7.93,0,1.25,4.13,5.09,6,6.26,1.37.86,11.91.34,16.5-.27,2.41-.32,4.93-2.1,6.78-3.41a7.38,7.38,0,0,1,2.69-1.52h0c1.89,0,12.27,10.34,12.36,11.29s-2.29,5.57-4.3,9.35A.64.64,0,0,1,154,83.82Z"
        transform="translate(-13.63 -11.65)" style="fill: rgb(137, 80, 252);"/>
    </g>
    <g style="opacity: 0.51;">
      <path
        d="M162.44,36.89a.6.6,0,0,1-.47-.22c-1.41-1.64-5.4-6-6.9-6.62-1-.41-6.24-.79-10-1.07-4.62-.34-5.92-.46-6.32-.66-.58-.28-1.1-1.26-2.06-3.25a19.83,19.83,0,0,0-1-1.82,5.74,5.74,0,0,0-2.6.62c-.41.48-.89,4.2-.89,5a57.25,57.25,0,0,0,2.25,5.49.63.63,0,0,1-1.14.52c-.88-2-2.36-5.36-2.36-6,0-.05.31-5.24,1.41-6a6.35,6.35,0,0,1,3.85-.77c.42.16.68.64,1.56,2.44a13.88,13.88,0,0,0,1.5,2.69c.37.12,3.28.33,5.84.52,5.38.39,9.27.71,10.41,1.15,2.06.8,6.85,6.35,7.39,7a.62.62,0,0,1-.07.88A.63.63,0,0,1,162.44,36.89Z"
        transform="translate(-13.63 -11.65)" style="fill: rgb(137, 80, 252);"/>
    </g>
    <g style="opacity: 0.51;">
      <path d="M181.2,74a.63.63,0,0,1-.63-.63V49a.63.63,0,0,1,1.26,0V73.32A.63.63,0,0,1,181.2,74Z"
            transform="translate(-13.63 -11.65)" style="fill: rgb(137, 80, 252);"/>
    </g>
    <g style="opacity: 0.51;">
      <path d="M171.33,74a.63.63,0,0,1-.63-.63V49A.63.63,0,0,1,172,49V73.32A.63.63,0,0,1,171.33,74Z"
            transform="translate(-13.63 -11.65)" style="fill: rgb(137, 80, 252);"/>
    </g>
    <g style="opacity: 0.51;">
      <path
        d="M176.27,89.1a.63.63,0,0,1-.52-.27L165.14,73.68a.62.62,0,1,1,1-.72l10.11,14.42L186.37,73a.63.63,0,0,1,.87-.15.64.64,0,0,1,.16.87L176.78,88.83A.63.63,0,0,1,176.27,89.1Z"
        transform="translate(-13.63 -11.65)" style="fill: rgb(137, 80, 252);"/>
    </g>
    <g style="opacity: 0.51;">
      <path d="M181.2,45.37a.63.63,0,0,1-.63-.63V42.27a.63.63,0,0,1,1.26,0v2.47A.63.63,0,0,1,181.2,45.37Z"
            transform="translate(-13.63 -11.65)" style="fill: rgb(137, 80, 252);"/>
    </g>
    <g style="opacity: 0.51;">
      <path d="M171.33,45.37a.63.63,0,0,1-.63-.63V39.63a.63.63,0,0,1,1.26,0v5.11A.63.63,0,0,1,171.33,45.37Z"
            transform="translate(-13.63 -11.65)" style="fill: rgb(137, 80, 252);"/>
    </g>
    <g style="opacity: 0.51;">
      <path d="M176.27,68a.63.63,0,0,1-.63-.63V36.27a.63.63,0,1,1,1.25,0v31.1A.63.63,0,0,1,176.27,68Z"
            transform="translate(-13.63 -11.65)" style="fill: rgb(137, 80, 252);"/>
    </g>
    <g style="opacity: 0.51;">
      <path
        d="M152.49,59.27l-1-.71,3.49-5.1c.74-1.07.12-3.47-.09-4.26a11.3,11.3,0,0,0-3.1-4.78c-1.58-1.63-5.36-2.67-5.4-2.68a.63.63,0,0,1,.33-1.21c.17,0,4.15,1.14,6,3a12.65,12.65,0,0,1,3.42,5.33c.41,1.61.86,3.9-.09,5.29Z"
        transform="translate(-13.63 -11.65)" style="fill: rgb(137, 80, 252);"/>
    </g>
  </g>
</svg>
