<?xml version="1.0" encoding="iso-8859-1"?>
<!-- Generator: Adobe Illustrator 19.0.0, SVG Export Plug-In . SVG Version: 6.00 Build 0)  -->
<svg version="1.1" id="Capa_1" xmlns="http://www.w3.org/2000/svg" xmlns:xlink="http://www.w3.org/1999/xlink" x="0px" y="0px"
	 viewBox="0 0 512.001 512.001" style="enable-background:new 0 0 512.001 512.001;" xml:space="preserve">
<g>
	<g transform="translate(1 1)">
		<g>
			<path style="fill:#E3E7F2;" d="M306.201,408.6l25.6-42.667h-1.024c18.752-18,35.438-38.035,49.749-59.733h87.808
				c9.414-0.028,17.039-7.652,17.067-17.067c-0.068-9.397-7.669-16.999-17.067-17.067h-8.533c-9.426,0-17.067-7.641-17.067-17.067
				c0-9.426,7.641-17.067,17.067-17.067h25.6c9.414-0.028,17.039-7.653,17.067-17.067c-0.068-9.397-7.669-16.999-17.067-17.067
				h-63.317c9.813-55.296-1.024-106.24-25.429-135.339C362.606,27.928,314.905,8.814,261.401,7.704
				c-2.048-0.085-4.011-0.171-5.973-0.171h-0.939c-1.963,0-4.011,0.085-5.888,0.171c-52.651,1.536-99.84,20.651-133.547,60.757
				c-35.157,41.899-46.336,131.584,0,209.408c2.389,4.011,4.608,7.765,6.741,11.264H58.734c-9.414,0.027-17.039,7.652-17.067,17.067
				c0.068,9.397,7.669,16.998,17.067,17.067h17.067c9.426,0,17.067,7.641,17.067,17.067c0,9.426-7.641,17.067-17.067,17.067h-51.2
				c-9.414,0.027-17.039,7.652-17.067,17.067c-0.024,4.528,1.793,8.871,5.035,12.032c3.161,3.241,7.504,5.059,12.032,5.035h168.96
				l10.24,17.067H306.201z M220.867,451.267V485.4c0.028,9.414,7.653,17.039,17.067,17.067h34.133
				c9.414-0.028,17.039-7.653,17.067-17.067v-34.133H220.867z"/>
			<path style="fill:#7FABFA;" d="M289.134,451.267V485.4c-0.028,9.414-7.652,17.039-17.067,17.067h-34.133
				c-9.414-0.028-17.039-7.653-17.067-17.067v-34.133H289.134z"/>
			<path style="fill:#E3E7F2;" d="M263.534,451.267V485.4c-0.028,9.414-7.652,17.039-17.067,17.067h-8.533
				c-9.414-0.028-17.039-7.653-17.067-17.067v-34.133H263.534z"/>
			<path style="fill:#D4E1F4;" d="M193.561,391.534l-168.96,0c-4.528,0.024-8.871-1.793-12.032-5.035
				c-3.241-3.161-5.059-7.504-5.035-12.032c0.028-9.414,7.652-17.039,17.067-17.067h51.2c9.426,0,17.067-7.641,17.067-17.067
				c0-9.426-7.641-17.067-17.067-17.067H58.734c-9.397-0.068-16.998-7.669-17.067-17.067c0.028-9.414,7.652-17.039,17.067-17.067
				h63.061c26.112,43.691,31.829,51.029,56.405,76.8L193.561,391.534z"/>
			<path style="fill:#F5F5F5;" d="M167.961,391.534l-143.36,0c-4.528,0.024-8.871-1.793-12.032-5.035
				c-3.241-3.161-5.059-7.504-5.035-12.032c0.028-9.414,7.652-17.039,17.067-17.067h51.2c9.426,0,17.067-7.641,17.067-17.067
				c0-9.426-7.641-17.067-17.067-17.067H58.734c-9.397-0.068-16.998-7.669-17.067-17.067c0.028-9.414,7.652-17.039,17.067-17.067
				h37.461c26.112,43.691,31.829,51.029,56.405,76.8L167.961,391.534z"/>
			<path style="fill:#D4E1F4;" d="M502.467,220.867c-0.028,9.414-7.652,17.039-17.067,17.067h-25.6
				c-9.426,0-17.067,7.641-17.067,17.067c0,9.426,7.641,17.067,17.067,17.067h8.533c9.397,0.068,16.999,7.669,17.067,17.067
				c-0.028,9.414-7.652,17.039-17.067,17.067h-87.808c5.035-8.021,10.325-17.323,16.128-28.331
				c5.483-10.431,10.217-21.238,14.165-32.341c5.027-13.534,8.798-27.503,11.264-41.728h63.317
				C494.798,203.868,502.4,211.47,502.467,220.867z"/>
			<path style="fill:#F5F5F5;" d="M476.867,220.867c-0.028,9.414-7.652,17.039-17.067,17.067h-25.6
				c-9.426,0-17.067,7.641-17.067,17.067c0,9.426,7.641,17.067,17.067,17.067h8.533c9.397,0.068,16.999,7.669,17.067,17.067
				c-0.028,9.414-7.653,17.039-17.067,17.067h-62.208c5.035-8.021,10.325-17.323,16.128-28.331
				c5.483-10.431,10.217-21.238,14.165-32.341c5.027-13.534,8.798-27.503,11.264-41.728h37.717
				C469.198,203.868,476.8,211.47,476.867,220.867z"/>
		</g>
		<path style="fill:#E3E7F2;" d="M168.729,265.582c10.124,35.483,25.39,69.293,45.312,100.352h-35.84
			c-24.576-25.771-30.293-33.109-56.405-76.8c-2.133-3.499-4.352-7.253-6.741-11.264c-46.336-77.824-35.157-167.509,0-209.408
			C148.761,28.355,195.95,9.24,248.601,7.704c-31.488,2.219-59.648,20.48-79.872,57.941
			C147.225,105.667,147.225,185.624,168.729,265.582z"/>
		<g>
			<path style="fill:#D4E1F4;" d="M226.243,65.646c-7.168,40.021-7.168,119.979,0,199.936c3.107,33.713,8.15,67.219,15.104,100.352
				h-27.307c-19.922-31.059-35.188-64.869-45.312-100.352c-21.504-79.957-21.504-159.915,0-199.936
				c20.224-37.461,48.384-55.723,79.872-57.941c1.877-0.085,3.925-0.171,5.888-0.171C243.395,8.046,233.326,26.222,226.243,65.646z"
				/>
			<path style="fill:#D4E1F4;" d="M341.273,265.582c-10.124,35.483-25.39,69.293-45.312,100.352h-27.307
				c6.954-33.133,11.997-66.639,15.104-100.352c7.168-79.957,7.168-159.915,0-199.936c-7.083-39.509-17.152-57.685-28.331-58.112
				c1.963,0,3.925,0.085,5.973,0.171c31.488,2.219,59.648,20.395,79.872,57.941C362.777,105.667,362.777,185.624,341.273,265.582z"
				/>
		</g>
		<path style="fill:#E3E7F2;" d="M283.758,265.582c-3.107,33.713-8.15,67.219-15.104,100.352h-27.307
			c-6.954-33.133-11.997-66.639-15.104-100.352c-7.168-79.957-7.168-159.915,0-199.936c7.083-39.424,17.152-57.6,28.245-58.112
			h0.939c11.179,0.427,21.248,18.603,28.331,58.112C290.926,105.667,290.926,185.624,283.758,265.582z"/>
		<polygon style="fill:#7FABFA;" points="331.801,365.934 306.201,408.6 203.801,408.6 193.561,391.534 178.201,365.934 		"/>
		<g>
			<polygon style="fill:#A4C2F7;" points="306.201,365.934 280.601,408.6 203.801,408.6 193.561,391.534 178.201,365.934 			"/>
			<path style="fill:#A4C2F7;" d="M371.481,68.462c35.157,41.899,46.336,131.584,0,209.408c-2.389,4.011-4.608,7.765-6.741,11.264
				c-26.112,43.691-31.829,51.029-56.405,76.8h25.6c24.576-25.771,30.293-33.109,56.405-76.8c2.133-3.499,4.352-7.253,6.741-11.264
				c46.336-77.824,35.157-167.509,0-209.408C363.374,28.355,316.185,9.24,263.534,7.704c13.382,0.878,26.366,4.914,37.888,11.776
				C328.723,29.272,352.91,46.183,371.481,68.462z"/>
		</g>
	</g>
	<g transform="translate(1 34)">
		<path style="fill:#FFFFFF;" d="M237.934,469.467h25.6c-9.414-0.028-17.039-7.653-17.067-17.067v-34.133h-25.6V452.4
			C220.895,461.815,228.52,469.439,237.934,469.467z"/>
		<path style="fill:#FFFFFF;" d="M12.569,353.499c3.161,3.241,7.504,5.059,12.032,5.035l25.6,0
			c-9.397-0.068-16.998-7.67-17.067-17.067c0.028-9.414,7.652-17.039,17.067-17.067h-25.6c-9.414,0.027-17.039,7.652-17.067,17.067
			C7.51,345.995,9.327,350.338,12.569,353.499z"/>
		<path style="fill:#FFFFFF;" d="M75.801,324.4h25.6c9.426,0,17.067-7.641,17.067-17.067s-7.641-17.067-17.067-17.067H84.334
			c-9.397-0.068-16.998-7.669-17.067-17.067c0.028-9.414,7.652-17.039,17.067-17.067h-25.6c-9.414,0.027-17.039,7.652-17.067,17.067
			c0.068,9.397,7.669,16.999,17.067,17.067h17.067c9.426,0,17.067,7.641,17.067,17.067S85.226,324.4,75.801,324.4z"/>
	</g>
	<g>
		<path style="fill:#FFFFFF;" d="M108.723,283.235c-19.663-33.249-30.606-70.928-31.811-109.538
			c-0.583-19.293,1.65-38.568,6.629-57.216c4.918-19.118,13.766-37.001,25.981-52.508l13.067,10.978
			c-10.611,13.616-18.297,29.276-22.577,45.999c-4.545,17.054-6.579,34.68-6.038,52.322c1.132,35.681,11.249,70.5,29.414,101.232
			L108.723,283.235z"/>
		<g>
			<path style="fill:#4682b4;" d="M486.401,196.267h-53.237c7.531-55.455-5.409-104.239-28.975-132.292
				C369.101,22.125,318.151,0,256.851,0c-0.173,0-0.341,0.011-0.514,0.011L256.001,0c-0.543,0-1.072,0.048-1.613,0.056
				c-60.189,0.59-110.258,22.635-144.87,63.919l-0.007,0.014C97.302,79.493,88.458,97.37,83.541,116.481
				c-4.979,18.648-7.212,37.923-6.629,57.216c-0.003,2.962,0.332,5.909,0.485,8.864c0.085,2.296,1.117,4.455,2.853,5.961
				c1.735,1.506,4.017,2.226,6.303,1.987c4.586-0.508,8.013-4.454,7.874-9.066c-0.137-2.724-0.462-5.445-0.453-8.171
				c-0.542-17.641,1.492-35.267,6.038-52.322c4.28-16.724,11.966-32.384,22.577-46l-0.004-0.003l0.007-0.006
				c16.967-20.169,38.784-35.692,63.399-45.112c-9.429,9.75-17.421,20.792-23.736,32.795c-22.8,42.333-23.083,123.258-0.763,206.042
				c8.651,31.548,21.629,61.746,38.564,89.733h-17.19c-23.82-25.114-28.705-32.202-59.477-83.9l-0.007-0.008l-7.827-14.404
				l-6.678-14.979c-1.705-4.286-6.515-6.432-10.843-4.838c-2.158,0.808-3.901,2.448-4.84,4.553
				c-0.939,2.104-0.995,4.497-0.155,6.643c2.283,5.447,4.813,10.795,7.22,16.192l7.575,13.94H59.734
				c-14.132,0.015-25.585,11.468-25.6,25.6c0.07,14.109,11.491,25.53,25.6,25.6h17.067c4.713,0,8.533,3.821,8.533,8.533
				c0,4.713-3.821,8.533-8.533,8.533h-51.2c-14.132,0.015-25.585,11.468-25.6,25.6c-0.05,6.756,2.639,13.244,7.454,17.983
				c4.758,4.905,11.312,7.656,18.146,7.617h164.128l7.4,12.333l16.205,40.513V486.4c0.015,14.132,11.468,25.585,25.6,25.6h34.133
				c14.132-0.015,25.585-11.468,25.6-25.6v-32.487l16.205-40.513l25.245-42.075c0.25-0.456,0.456-0.933,0.617-1.427l2.458-2.573
				c16.023-15.701,30.412-32.987,42.947-51.592h83.195c14.132-0.015,25.585-11.468,25.6-25.6c-0.07-14.109-11.491-25.53-25.6-25.6
				h-8.533c-4.713,0-8.533-3.82-8.533-8.533s3.821-8.533,8.533-8.533h25.6c14.132-0.015,25.585-11.468,25.6-25.6
				C511.931,207.758,500.51,196.337,486.401,196.267z M279.98,358.4c6.062-30.088,10.491-60.483,13.267-91.05
				c7.221-80.367,7.179-161.617-0.1-202.183c-2.299-15.173-6.481-30.001-12.45-44.139c23.795,8.894,43.179,26.726,54.025,49.697
				c20.521,38.1,20.229,115.917-0.763,193.775c-9.299,33.173-23.4,64.808-41.855,93.9H279.98z M249.401,358.4
				c-6.264-30.584-10.819-61.493-13.646-92.583c-7.1-79-7.142-158.425-0.1-197.633c7.312-40.725,16.665-50.531,20.043-51.064
				c0.167-0.001,0.325-0.022,0.492-0.022c1.469,0.295,11.71,4.049,20.157,51.086c7.042,39.208,7,118.633-0.104,197.683
				c-2.827,31.074-7.381,61.966-13.642,92.534H249.401z M178.005,264.359c-20.954-77.717-21.246-155.533-0.725-193.633
				c10.845-22.972,30.229-40.803,54.025-49.697c-5.968,14.138-10.15,28.966-12.449,44.139
				c-7.279,40.567-7.321,121.817-0.104,202.133c2.775,30.584,7.205,60.995,13.271,91.1h-12.124
				C201.419,329.266,187.305,297.582,178.005,264.359z M294.596,418.134l-10.24,25.6h-19.822v-25.6H294.596z M247.467,443.734
				h-19.822l-10.24-25.6h30.061V443.734z M25.601,384c-2.298,0.005-4.496-0.938-6.075-2.608c-1.591-1.559-2.479-3.698-2.458-5.925
				c0.005-4.711,3.822-8.529,8.533-8.533h51.2c14.138,0,25.6-11.462,25.6-25.6c0-14.138-11.462-25.6-25.6-25.6H59.734
				c-2.298,0.005-4.496-0.938-6.075-2.608c-1.591-1.559-2.479-3.698-2.458-5.925c0.005-4.711,3.822-8.529,8.533-8.533h58.217
				c24.162,40.193,30.742,48.584,54.41,73.454l7.128,11.88L25.601,384z M281.601,486.4c-0.005,4.711-3.822,8.529-8.533,8.533
				h-34.133c-4.711-0.005-8.529-3.822-8.533-8.533v-25.6h51.2V486.4z M302.367,401.067h-92.733l-15.363-25.6H317.73L302.367,401.067
				z M330.859,355.534l-2.739,2.867h-16.176c16.914-27.944,29.879-58.093,38.527-89.591c22.358-82.925,22.075-163.85-0.725-206.183
				c-6.542-12.438-14.9-23.833-24.799-33.808c25.726,9.298,48.549,25.209,66.17,46.133c30.938,36.825,41.092,119.425-1.029,199.958
				C375.135,304.994,355.097,332.27,330.859,355.534z M486.401,230.4h-25.6c-14.138,0-25.6,11.462-25.6,25.6
				c0,14.138,11.462,25.6,25.6,25.6h8.533c2.298-0.005,4.496,0.938,6.075,2.608c1.591,1.559,2.479,3.698,2.458,5.925
				c-0.005,4.711-3.822,8.529-8.533,8.533h-72.778c2.788-4.871,5.658-10.108,8.657-15.842
				c11.512-21.896,19.933-45.283,25.023-69.492h56.165c2.298-0.005,4.496,0.938,6.075,2.608c1.591,1.559,2.479,3.698,2.458,5.925
				C494.929,226.578,491.112,230.396,486.401,230.4z"/>
			<path style="fill:#4682b4;" d="M86.377,223.136l1.524,0.688c0.548,0.196,1.12,0.318,1.701,0.361
				c0.534,0.114,1.082,0.147,1.626,0.096c0.57-0.054,1.135-0.147,1.692-0.28c2.15-0.616,3.997-2.003,5.188-3.896
				c0.522-0.95,0.866-1.987,1.015-3.061c0.632-3.278-0.789-6.611-3.591-8.426c-0.961-0.577-2.018-0.976-3.12-1.178
				c-1.095-0.231-2.225-0.251-3.328-0.06c-2.216,0.44-4.169,1.737-5.436,3.608c-1.189,1.999-1.595,4.367-1.139,6.648
				C82.973,219.93,84.375,221.925,86.377,223.136z"/>
		</g>
	</g>
</g>
<g>
</g>
<g>
</g>
<g>
</g>
<g>
</g>
<g>
</g>
<g>
</g>
<g>
</g>
<g>
</g>
<g>
</g>
<g>
</g>
<g>
</g>
<g>
</g>
<g>
</g>
<g>
</g>
<g>
</g>
</svg>
